<svg width="163" height="38" viewBox="0 0 163 38" fill="none" xmlns="http://www.w3.org/2000/svg">
<path fill-rule="evenodd" clip-rule="evenodd" d="M1.29401 6.48375C6.31809e-06 9.025 0 12.35 0 19C0 25.65 6.31809e-06 28.975 1.29401 31.5163C2.43401 33.7488 4.25099 35.5656 6.48399 36.7056C9.02499 38 12.35 38 19 38C25.65 38 28.975 38 31.516 36.7056C33.749 35.5656 35.566 33.7488 36.706 31.5163C38 28.975 38 25.65 38 19C38 12.35 38 9.025 36.706 6.48375C35.566 4.25125 33.749 2.43438 31.516 1.29438C28.975 0 25.65 0 19 0C12.35 0 9.02499 0 6.48399 1.29438C4.25099 2.43438 2.43401 4.25125 1.29401 6.48375ZM28.482 10.2481C28.815 10.2481 29.129 10.3847 29.361 10.6163C29.593 10.8538 29.723 11.1744 29.717 11.5009C29.658 15.0397 29.521 17.7472 29.266 19.8906C29.017 22.0341 28.643 23.6253 28.079 24.9138C27.699 25.7747 27.229 26.4872 26.677 27.0928C25.935 27.8944 25.086 28.4763 24.16 29.0285C23.764 29.2653 23.352 29.4991 22.92 29.7444C21.999 30.2677 20.985 30.8431 19.837 31.6113C19.422 31.8903 18.881 31.8903 18.466 31.6113C17.3 30.8341 16.273 30.2516 15.343 29.7241C15.137 29.6068 14.935 29.4922 14.737 29.3788C13.65 28.7494 12.671 28.1497 11.816 27.2828C11.246 26.7128 10.753 26.0181 10.361 25.1928C9.82699 24.0884 9.46401 22.7525 9.19701 21.0247C8.84101 18.715 8.66301 15.6928 8.59801 11.5009C8.59201 11.1744 8.716 10.8538 8.948 10.6163C9.179 10.3847 9.49999 10.2481 9.83299 10.2481H10.343C11.917 10.2541 15.39 10.0997 18.394 7.76032C18.84 7.41594 19.463 7.41594 19.909 7.76032C22.913 10.0997 26.386 10.2541 27.966 10.2481H28.482ZM25.721 24.1241C26.107 23.3284 26.428 22.23 26.671 20.6506C26.962 18.7625 27.14 16.1975 27.224 12.7063C25.371 12.6528 22.189 12.2966 19.154 10.2541C16.12 12.2906 12.938 12.6469 11.091 12.7063C11.157 15.5919 11.287 17.8363 11.495 19.5997C11.733 21.6066 12.071 22.9663 12.493 23.9222C12.772 24.5575 13.08 25.0147 13.449 25.4184C13.941 25.9588 14.565 26.4041 15.414 26.9147C15.766 27.126 16.154 27.3458 16.577 27.5851C17.33 28.0113 18.192 28.4993 19.154 29.1116C20.099 28.5093 20.949 28.0263 21.693 27.6032C21.917 27.4757 22.132 27.3536 22.337 27.2353C23.382 26.6356 24.154 26.1369 24.73 25.555C25.116 25.1572 25.43 24.7238 25.721 24.1241Z" fill="white"/>
<path d="M52.887 15.208H48.631V12.7H60.221V15.208H55.965V26H52.887V15.208ZM63.706 17.127C64.061 16.633 64.536 16.2593 65.131 16.006C65.739 15.7527 66.436 15.626 67.221 15.626V18.362C66.892 18.3367 66.67 18.324 66.556 18.324C65.707 18.324 65.042 18.5647 64.561 19.046C64.08 19.5147 63.839 20.224 63.839 21.174V26H60.875V15.778H63.706V17.127ZM78.786 15.778V26H75.974V24.784C75.581 25.2273 75.112 25.5693 74.568 25.81C74.023 26.038 73.434 26.152 72.801 26.152C71.458 26.152 70.394 25.7657 69.609 24.993C68.823 24.2203 68.431 23.074 68.431 21.554V15.778H71.395V21.117C71.395 22.7637 72.085 23.587 73.466 23.587C74.175 23.587 74.745 23.359 75.176 22.903C75.606 22.4343 75.822 21.744 75.822 20.832V15.778H78.786ZM84.401 26.152C83.552 26.152 82.722 26.0507 81.912 25.848C81.101 25.6327 80.455 25.3667 79.974 25.05L80.962 22.922C81.418 23.2133 81.969 23.454 82.615 23.644C83.261 23.8213 83.894 23.91 84.515 23.91C85.769 23.91 86.396 23.5997 86.396 22.979C86.396 22.6877 86.225 22.4787 85.883 22.352C85.541 22.2253 85.015 22.1177 84.306 22.029C83.47 21.9023 82.779 21.7567 82.235 21.592C81.69 21.4273 81.215 21.136 80.81 20.718C80.417 20.3 80.221 19.7047 80.221 18.932C80.221 18.286 80.404 17.716 80.772 17.222C81.152 16.7153 81.696 16.3227 82.406 16.044C83.128 15.7653 83.976 15.626 84.952 15.626C85.674 15.626 86.389 15.7083 87.099 15.873C87.821 16.025 88.416 16.2403 88.885 16.519L87.897 18.628C86.997 18.1213 86.016 17.868 84.952 17.868C84.318 17.868 83.843 17.9567 83.527 18.134C83.21 18.3113 83.052 18.5393 83.052 18.818C83.052 19.1347 83.223 19.3563 83.565 19.483C83.907 19.6097 84.451 19.73 85.199 19.844C86.035 19.9833 86.719 20.1353 87.251 20.3C87.783 20.452 88.245 20.737 88.638 21.155C89.03 21.573 89.227 22.1557 89.227 22.903C89.227 23.5363 89.037 24.1 88.657 24.594C88.277 25.088 87.719 25.4743 86.985 25.753C86.263 26.019 85.401 26.152 84.401 26.152ZM97.078 25.506C96.787 25.7213 96.426 25.886 95.995 26C95.577 26.1013 95.134 26.152 94.665 26.152C93.449 26.152 92.506 25.8417 91.834 25.221C91.176 24.6003 90.846 23.6883 90.846 22.485V18.286H89.269V16.006H90.846V13.517H93.81V16.006H96.356V18.286H93.81V22.447C93.81 22.8777 93.918 23.2133 94.133 23.454C94.361 23.682 94.678 23.796 95.083 23.796C95.552 23.796 95.951 23.6693 96.28 23.416L97.078 25.506ZM123.294 12.7L118.943 26H115.637L112.711 16.994L109.69 26H106.403L102.033 12.7H105.225L108.227 22.048L111.362 12.7H114.212L117.252 22.124L120.349 12.7H123.294ZM127.596 15.626C129.179 15.626 130.395 16.006 131.244 16.766C132.092 17.5133 132.517 18.647 132.517 20.167V26H129.743V24.727C129.185 25.677 128.147 26.152 126.627 26.152C125.841 26.152 125.157 26.019 124.575 25.753C124.005 25.487 123.568 25.1197 123.264 24.651C122.96 24.1823 122.808 23.6503 122.808 23.055C122.808 22.105 123.162 21.3577 123.872 20.813C124.594 20.2683 125.702 19.996 127.197 19.996H129.553C129.553 19.35 129.356 18.856 128.964 18.514C128.571 18.1593 127.982 17.982 127.197 17.982C126.652 17.982 126.114 18.0707 125.582 18.248C125.062 18.4127 124.619 18.6407 124.252 18.932L123.188 16.861C123.745 16.4683 124.41 16.1643 125.183 15.949C125.968 15.7337 126.772 15.626 127.596 15.626ZM127.368 24.157C127.874 24.157 128.324 24.043 128.717 23.815C129.109 23.5743 129.388 23.226 129.553 22.77V21.725H127.52C126.304 21.725 125.696 22.124 125.696 22.922C125.696 23.302 125.841 23.606 126.133 23.834C126.437 24.0493 126.848 24.157 127.368 24.157ZM134.629 11.902H137.593V26H134.629V11.902ZM139.774 11.902H142.738V26H139.774V11.902ZM154.932 20.927C154.932 20.965 154.913 21.231 154.875 21.725H147.142C147.281 22.3583 147.611 22.8587 148.13 23.226C148.649 23.5933 149.295 23.777 150.068 23.777C150.6 23.777 151.069 23.701 151.474 23.549C151.892 23.3843 152.278 23.131 152.633 22.789L154.21 24.499C153.247 25.601 151.841 26.152 149.992 26.152C148.839 26.152 147.82 25.9303 146.933 25.487C146.046 25.031 145.362 24.404 144.881 23.606C144.4 22.808 144.159 21.9023 144.159 20.889C144.159 19.8883 144.393 18.989 144.862 18.191C145.343 17.3803 145.996 16.7533 146.819 16.31C147.655 15.854 148.586 15.626 149.612 15.626C150.613 15.626 151.518 15.8413 152.329 16.272C153.14 16.7027 153.773 17.3233 154.229 18.134C154.698 18.932 154.932 19.863 154.932 20.927ZM149.631 17.868C148.96 17.868 148.396 18.058 147.94 18.438C147.484 18.818 147.205 19.3373 147.104 19.996H152.139C152.038 19.35 151.759 18.837 151.303 18.457C150.847 18.0643 150.29 17.868 149.631 17.868ZM162.928 25.506C162.637 25.7213 162.276 25.886 161.845 26C161.427 26.1013 160.984 26.152 160.515 26.152C159.299 26.152 158.356 25.8417 157.684 25.221C157.026 24.6003 156.696 23.6883 156.696 22.485V18.286H155.119V16.006H156.696V13.517H159.66V16.006H162.206V18.286H159.66V22.447C159.66 22.8777 159.768 23.2133 159.983 23.454C160.211 23.682 160.528 23.796 160.933 23.796C161.402 23.796 161.801 23.6693 162.13 23.416L162.928 25.506Z" fill="white"/>
</svg>
